<svg id="Layer_1" data-name="Layer 1" xmlns="http://www.w3.org/2000/svg" viewBox="0 0 211.62 79.2"><defs><style>.cls-1{font-size:16.81px;font-family:Cocogoose;}.cls-1,.cls-14{fill:#f1f3f6;}.cls-2{letter-spacing:-0.01em;}.cls-3,.cls-4,.cls-9{font-size:17.49px;}.cls-3{letter-spacing:-0.01em;}.cls-5{letter-spacing:-0.02em;}.cls-6{letter-spacing:-0.01em;}.cls-7{letter-spacing:-0.01em;}.cls-8{font-size:15.76px;letter-spacing:-0.01em;}.cls-9{letter-spacing:-0.01em;}.cls-10{letter-spacing:-0.01em;}.cls-11{letter-spacing:0.01em;}.cls-12{font-size:16.97px;letter-spacing:0.01em;}.cls-13{font-size:15.91px;letter-spacing:0.01em;}.cls-15{fill:#a1a8ac;}.cls-16{fill:#e02e3a;}</style></defs><text class="cls-1" transform="translate(6.56 32.82)"><tspan class="cls-2">le</tspan><tspan class="cls-3" x="16.78" y="0">t</tspan><tspan x="24.17" y="0"> </tspan><tspan class="cls-4" x="29.44" y="0">t</tspan><tspan class="cls-2" x="36.96" y="0">he</tspan><tspan x="60.33" y="0"> </tspan><tspan class="cls-5" x="65.61" y="0">r</tspan><tspan class="cls-6" x="74.88" y="0">es</tspan><tspan class="cls-7" x="96.22" y="0">u</tspan><tspan class="cls-8" x="108.13" y="0">l</tspan><tspan class="cls-9" x="112.79" y="0">t</tspan><tspan class="cls-10" x="120.06" y="0">s</tspan><tspan x="129.56" y="0"> </tspan><tspan class="cls-11" x="134.83" y="0">spea</tspan><tspan class="cls-12" x="182.99" y="0">k</tspan><tspan class="cls-13" x="195.14" y="0">.</tspan></text><path class="cls-14" d="M60.9,66.12a.26.26,0,0,1,.23,0c4.25,1.82,9.3,2,13.53-.66a10.89,10.89,0,0,0,4.66-6.08.25.25,0,0,1,.24-.17h7.16a.22.22,0,0,0,.14-.41,5.42,5.42,0,0,0-2.31-1.14H63.76l-.35.22a12.22,12.22,0,0,1-4.59,6,.27.27,0,0,1-.35,0,13.22,13.22,0,0,1-2.62-4.59c-.18-.52-2.57-1.55-3.21-1.55h-9.5a.24.24,0,0,1-.25-.2,7.8,7.8,0,0,1-.12-.94,9.94,9.94,0,0,1,.41-3.75.25.25,0,0,1,.24-.17H55.58l.35-.23a12.19,12.19,0,0,1,4.59-6,.27.27,0,0,1,.35,0A13.32,13.32,0,0,1,63.49,51c.17.52,2.57,1.55,3.21,1.55h20a.23.23,0,0,0,.15-.42A5.39,5.39,0,0,0,84.55,51H79a.26.26,0,0,1-.23-.14c-1.53-3-4.59-5.21-8.2-6.82a14,14,0,0,0-12.11,0,.28.28,0,0,1-.22,0c-4.25-1.82-9.3-2-13.53.65A10.93,10.93,0,0,0,40,50.86a.25.25,0,0,1-.24.17H32.62a.23.23,0,0,0-.14.42,5.42,5.42,0,0,0,2.31,1.14h4.56a.24.24,0,0,1,.25.26,12,12,0,0,0,.27,4.51h0a.24.24,0,0,1-.25.29h-7a.22.22,0,0,0-.14.41,5.42,5.42,0,0,0,2.31,1.14h5.59a.27.27,0,0,1,.23.14c1.52,3,4.58,5.21,8.19,6.82A14,14,0,0,0,60.9,66.12Zm6-21.89c5-.38,7.89,3,9.08,6.51a.24.24,0,0,1-.25.3H66.27a.25.25,0,0,1-.23-.13,14.72,14.72,0,0,0-4.38-4.83.22.22,0,0,1,0-.38A13,13,0,0,1,66.87,44.23Zm-17.33,1.2a12.87,12.87,0,0,1,8-1l.16,0h0A11.88,11.88,0,0,0,53,49.91c-.23.48,0,1.12-.72,1.12h-8A.23.23,0,0,1,44,50.7,12.74,12.74,0,0,1,49.54,45.43Zm16.83,14.9c.23-.49,0-1.13.72-1.13h8a.24.24,0,0,1,.23.34A12.39,12.39,0,0,1,61.8,65.76l-.16,0h0A11.88,11.88,0,0,0,66.37,60.33ZM43.63,59.2h9.44a.25.25,0,0,1,.22.13,15,15,0,0,0,4.39,4.83.22.22,0,0,1,0,.38A13,13,0,0,1,52.47,66c-5,.39-7.89-2.94-9.08-6.5A.23.23,0,0,1,43.63,59.2Z"/><rect class="cls-14" x="128.83" y="47" width="0.43" height="13.01"/><path class="cls-15" d="M133.1,54.57h-.44a.38.38,0,0,1-.4-.36V52.52a.38.38,0,0,1,.4-.36h.44V50.41a3.92,3.92,0,0,1,4.22-4.15,4.74,4.74,0,0,1,2.54.72.37.37,0,0,1,.08.44L139.07,49a.4.4,0,0,1-.48.13,2.59,2.59,0,0,0-1.08-.3c-.88,0-1.23.64-1.23,1.58v1.75h1.91a.38.38,0,0,1,.4.36v1.69a.38.38,0,0,1-.4.36h-1.91V59.4a.38.38,0,0,1-.4.36h-2.39a.37.37,0,0,1-.39-.36Z"/><path class="cls-15" d="M139.86,52.52a.38.38,0,0,1,.39-.36h1a.39.39,0,0,1,.38.22l.37.84A2.93,2.93,0,0,1,144.25,52c1.14,0,1.95.38,1.66.81l-1,1.52a.37.37,0,0,1-.46.18,1.5,1.5,0,0,0-.49-.1,1.06,1.06,0,0,0-1.11,1.09V59.4c0,.23-.12.36-.45.36h-2.13a.38.38,0,0,1-.39-.36Z"/><path class="cls-15" d="M150.43,52a3.74,3.74,0,0,1,3.95,3.57,4.73,4.73,0,0,1,0,.52.39.39,0,0,1-.4.32h-5a1.5,1.5,0,0,0,1.6,1.25,2.9,2.9,0,0,0,1.46-.45.37.37,0,0,1,.52,0l1,1.14a.39.39,0,0,1,0,.55A4.44,4.44,0,0,1,150.47,60a4,4,0,1,1,0-8Zm1,2.92a1.11,1.11,0,0,0-1.11-.89,1.13,1.13,0,0,0-1.12.89Z"/><path class="cls-15" d="M158.16,54.89a4.19,4.19,0,0,1,1.61.31c0-.74-.13-1.12-1.13-1.12a9.73,9.73,0,0,0-2.08.28c-.31.1-.45-.11-.5-.4l-.18-1.2a.4.4,0,0,1,.31-.51A15.74,15.74,0,0,1,159,52c2.57,0,3.51,1,3.51,3.23v4.2a.38.38,0,0,1-.39.36h-.92a.37.37,0,0,1-.37-.24l-.3-.52a3.58,3.58,0,0,1-2.64,1,2.67,2.67,0,0,1-2.74-2.54C155.12,56,156.29,54.89,158.16,54.89Zm.58,3.2a.88.88,0,0,0,.88-.84.89.89,0,0,0-.91-.8.84.84,0,0,0-.89.91A.89.89,0,0,0,158.74,58.09Z"/><path class="cls-15" d="M164.38,46.81a.38.38,0,0,1,.4-.36h2.31a.37.37,0,0,1,.39.36v8.24L170,52.38a.74.74,0,0,1,.52-.22h2.33c.36,0,.54.32.31.59l-2.74,2.91,3.33,3.53c.22.25,0,.57-.32.57h-2.8a.53.53,0,0,1-.32-.15l-2.83-3.31v3.1a.37.37,0,0,1-.39.36h-2.31a.38.38,0,0,1-.4-.36Z"/><path class="cls-15" d="M174.27,58.93l.72-1.32a.39.39,0,0,1,.44-.15,4.88,4.88,0,0,0,1.87.5.36.36,0,0,0,.4-.35c0-.19-.13-.45-1.19-.79-1.62-.52-2.33-1.37-2.33-2.55s1-2.3,3.25-2.3a6,6,0,0,1,2.76.58c.19.12.34.29.21.48l-.77,1.29a.37.37,0,0,1-.43.12,5.13,5.13,0,0,0-1.77-.44c-.27,0-.46.06-.46.27s.23.38.94.61c1.68.53,2.85,1.14,2.85,2.66,0,1.33-1.17,2.41-3.52,2.41a5.46,5.46,0,0,1-2.83-.62C174.27,59.21,174.16,59.1,174.27,58.93Z"/><path class="cls-16" d="M94.4,48.41a1.57,1.57,0,0,1,3.11-.27,1.49,1.49,0,0,1-1.66,1.6A1.51,1.51,0,0,1,94.4,48.41Zm.12,3.85a.37.37,0,0,1,.37-.35h2.16a.37.37,0,0,1,.38.35v6.5a.36.36,0,0,1-.38.34H94.89a.36.36,0,0,1-.37-.34Z"/><path class="cls-16" d="M102.73,51.73a3.54,3.54,0,0,1,3.74,3.38,4,4,0,0,1,0,.49.37.37,0,0,1-.38.3h-4.71a1.41,1.41,0,0,0,1.51,1.19,2.81,2.81,0,0,0,1.38-.43.36.36,0,0,1,.49,0l1,1.08a.36.36,0,0,1,0,.52,4.21,4.21,0,0,1-2.91,1,3.79,3.79,0,1,1,0-7.55Zm1,2.77a1,1,0,0,0-1-.84,1.06,1.06,0,0,0-1.06.84Z"/><path class="cls-16" d="M107.59,46.86a.36.36,0,0,1,.37-.34h2.16a.36.36,0,0,1,.37.34v11.9a.35.35,0,0,1-.37.34H108a.35.35,0,0,1-.37-.34Z"/><path class="cls-16" d="M112.64,54.2h-.52a.34.34,0,0,1-.35-.33V52.26a.35.35,0,0,1,.35-.35h.52v-2a.35.35,0,0,1,.37-.34h2.1a.34.34,0,0,1,.36.32v2h1.45a.36.36,0,0,1,.37.35v1.59a.36.36,0,0,1-.37.35h-1.45v2.24c0,.4.29.43.53.43a4.67,4.67,0,0,0,.76-.12.33.33,0,0,1,.43.23l.44,1.49a.36.36,0,0,1-.26.42,11,11,0,0,1-2.38.39,2.19,2.19,0,0,1-2.35-2.5Z"/><path class="cls-16" d="M118.47,58.31l.69-1.24a.35.35,0,0,1,.41-.14,4.74,4.74,0,0,0,1.77.46c.2,0,.37-.1.37-.32s-.11-.43-1.12-.75c-1.53-.49-2.2-1.3-2.2-2.41s1-2.18,3.07-2.18a5.57,5.57,0,0,1,2.61.56c.18.11.32.27.2.45L123.54,54a.36.36,0,0,1-.41.11,4.92,4.92,0,0,0-1.67-.41c-.26,0-.43.05-.43.25s.21.36.88.57c1.59.51,2.69,1.08,2.69,2.52,0,1.26-1.1,2.28-3.32,2.28a5,5,0,0,1-2.67-.59C118.47,58.58,118.37,58.47,118.47,58.31Z"/></svg>