<?xml version="1.0" encoding="utf-8"?>
<!-- Generator: Adobe Illustrator 24.1.2, SVG Export Plug-In . SVG Version: 6.00 Build 0)  -->
<svg version="1.1" id="Layer_1" xmlns="http://www.w3.org/2000/svg" xmlns:xlink="http://www.w3.org/1999/xlink" x="0px" y="0px"
	 viewBox="0 0 119.5 119.5" style="enable-background:new 0 0 119.5 119.5;" xml:space="preserve">
<style type="text/css">
	.st0{fill:#161313;}
	.st1{fill:#F1F3F6;}
	.st2{fill:#232F4F;}
	.st3{fill:none;}
</style>
<g>
	<g>
		<g>
			<circle class="st0" cx="-75.2" cy="58.8" r="59.8"/>
		</g>
	</g>
	<g>
		<path class="st1" d="M-73.2,78.8c0.1-0.1,0.3-0.1,0.4,0c8.2,3.5,17.9,3.9,26.1-1.3c4.7-2.9,7.6-7.2,9-11.7
			c0.1-0.2,0.2-0.3,0.5-0.3h13.8c0.5,0,0.7-0.5,0.3-0.8c-1.3-0.9-3.1-2.2-4.5-2.2H-37h-6.9h-23.8c-0.2,0.1-0.4,0.3-0.7,0.4
			c-1.6,4.5-4.6,8.6-8.9,11.5c-0.2,0.1-0.5,0.1-0.7-0.1c-2.5-2.7-4.2-6.3-5-8.9c-0.3-1-5-3-6.2-3h-18.3c-0.2,0-0.4-0.2-0.5-0.4
			c-0.1-0.6-0.2-1.2-0.2-1.8c-0.2-2.4,0.1-4.9,0.8-7.2c0.1-0.2,0.3-0.3,0.5-0.3h23.4c0.2-0.2,0.4-0.3,0.7-0.4
			c1.6-4.5,4.6-8.6,8.8-11.5c0.2-0.1,0.5-0.1,0.7,0.1c2.5,2.7,4.2,6.3,5,8.9c0.3,1,5,3,6.2,3h18.7h5.7h14.1c0.5,0,0.7-0.5,0.3-0.8
			c-1.3-0.9-3.1-2.2-4.4-2.2h-10.8c-0.2,0-0.4-0.1-0.4-0.3c-2.9-5.8-8.8-10-15.8-13.1c-7.6-3.4-16-3.6-23.3,0.1
			c-0.1,0.1-0.3,0.1-0.4,0c-8.2-3.5-17.9-3.9-26.1,1.3c-4.6,3-7.6,7.1-9,11.7c-0.1,0.2-0.2,0.3-0.5,0.3h-13.8
			c-0.5,0-0.7,0.5-0.3,0.8c1.3,0.9,3.1,2.2,4.4,2.2h8.8c0.3,0,0.5,0.2,0.5,0.5c-0.4,2.9-0.2,5.9,0.5,8.7l0,0
			c0.1,0.3-0.2,0.6-0.5,0.6h-13.5c-0.5,0-0.7,0.5-0.3,0.8c1.3,0.9,3.1,2.2,4.4,2.2h10.8c0.2,0,0.4,0.1,0.4,0.3
			c2.9,5.8,8.8,10,15.8,13.1C-88.9,82.3-80.5,82.5-73.2,78.8z M-61.7,36.7c9.7-0.7,15.2,5.7,17.5,12.5c0.1,0.3-0.1,0.6-0.5,0.6
			h-18.2c-0.2,0-0.4-0.1-0.4-0.2c-1.9-3.5-4.8-6.7-8.4-9.3c-0.3-0.2-0.3-0.6,0-0.7C-68.8,38-65.5,37-61.7,36.7z M-95.1,39
			c4.6-2.3,10.2-2.8,15.4-1.8c0.1,0,0.2,0,0.3,0.1c0,0,0,0,0,0c-4.3,2.5-7.2,6.4-9,10.4c-0.4,0.9,0,2.2-1.4,2.2h-15.4
			c-0.4,0-0.6-0.3-0.4-0.6C-103.5,45-99.9,41.4-95.1,39z M-62.7,67.7c0.4-0.9,0-2.2,1.4-2.2h15.4c0.4,0,0.6,0.3,0.4,0.6
			c-2.2,4.1-5.8,7.7-10.6,10.2c-4.6,2.3-10.2,2.8-15.4,1.8c-0.1,0-0.2,0-0.3-0.1c0,0,0,0,0.1,0C-67.4,75.5-64.5,71.7-62.7,67.7z
			 M-106.5,65.5h18.2c0.2,0,0.4,0.1,0.4,0.2c1.9,3.5,4.9,6.7,8.4,9.3c0.3,0.2,0.3,0.6,0,0.7c-2.9,1.5-6.2,2.5-10,2.8
			c-9.7,0.7-15.2-5.7-17.5-12.5C-107,65.8-106.8,65.5-106.5,65.5z"/>
	</g>
</g>
<g>
	<g>
		<g>
			<circle class="st2" cx="-227.2" cy="56.8" r="59.8"/>
		</g>
	</g>
	<g>
		<path class="st1" d="M-224.2,76.8c0.1-0.1,0.3-0.1,0.4,0c8.2,3.5,17.9,3.9,26.1-1.3c4.7-2.9,7.6-7.2,9-11.7
			c0.1-0.2,0.2-0.3,0.5-0.3h13.8c0.5,0,0.7-0.5,0.3-0.8c-1.3-0.9-3.1-2.2-4.5-2.2h-9.3h-6.9h-23.8c-0.2,0.1-0.4,0.3-0.7,0.4
			c-1.6,4.5-4.6,8.6-8.9,11.5c-0.2,0.1-0.5,0.1-0.7-0.1c-2.5-2.7-4.2-6.3-5-8.9c-0.3-1-5-3-6.2-3h-18.3c-0.2,0-0.4-0.2-0.5-0.4
			c-0.1-0.6-0.2-1.2-0.2-1.8c-0.2-2.4,0.1-4.9,0.8-7.2c0.1-0.2,0.3-0.3,0.5-0.3h23.4c0.2-0.2,0.4-0.3,0.7-0.4
			c1.6-4.5,4.6-8.6,8.8-11.5c0.2-0.1,0.5-0.1,0.7,0.1c2.5,2.7,4.2,6.3,5,8.9c0.3,1,5,3,6.2,3h18.7h5.7h14.1c0.5,0,0.7-0.5,0.3-0.8
			c-1.3-0.9-3.1-2.2-4.4-2.2h-10.8c-0.2,0-0.4-0.1-0.4-0.3c-2.9-5.8-8.8-10-15.8-13.1c-7.6-3.4-16-3.6-23.3,0.1
			c-0.1,0.1-0.3,0.1-0.4,0c-8.2-3.5-17.9-3.9-26.1,1.3c-4.6,3-7.6,7.1-9,11.7c-0.1,0.2-0.2,0.3-0.5,0.3h-13.8
			c-0.5,0-0.7,0.5-0.3,0.8c1.3,0.9,3.1,2.2,4.4,2.2h8.8c0.3,0,0.5,0.2,0.5,0.5c-0.4,2.9-0.2,5.9,0.5,8.7l0,0
			c0.1,0.3-0.2,0.6-0.5,0.6h-13.5c-0.5,0-0.7,0.5-0.3,0.8c1.3,0.9,3.1,2.2,4.4,2.2h10.8c0.2,0,0.4,0.1,0.4,0.3
			c2.9,5.8,8.8,10,15.8,13.1C-239.9,80.3-231.5,80.5-224.2,76.8z M-212.7,34.7c9.7-0.7,15.2,5.7,17.5,12.5c0.1,0.3-0.1,0.6-0.5,0.6
			h-18.2c-0.2,0-0.4-0.1-0.4-0.2c-1.9-3.5-4.8-6.7-8.4-9.3c-0.3-0.2-0.3-0.6,0-0.7C-219.8,36-216.5,35-212.7,34.7z M-246.1,37
			c4.6-2.3,10.2-2.8,15.4-1.8c0.1,0,0.2,0,0.3,0.1c0,0,0,0,0,0c-4.3,2.5-7.2,6.4-9,10.4c-0.4,0.9,0,2.2-1.4,2.2h-15.4
			c-0.4,0-0.6-0.3-0.4-0.6C-254.5,43-250.9,39.4-246.1,37z M-213.7,65.7c0.4-0.9,0-2.2,1.4-2.2h15.4c0.4,0,0.6,0.3,0.4,0.6
			c-2.2,4.1-5.8,7.7-10.6,10.2c-4.6,2.3-10.2,2.8-15.4,1.8c-0.1,0-0.2,0-0.3-0.1c0,0,0,0,0.1,0C-218.4,73.5-215.5,69.7-213.7,65.7z
			 M-257.5,63.5h18.2c0.2,0,0.4,0.1,0.4,0.2c1.9,3.5,4.9,6.7,8.4,9.3c0.3,0.2,0.3,0.6,0,0.7c-2.9,1.5-6.2,2.5-10,2.8
			c-9.7,0.7-15.2-5.7-17.5-12.5C-258,63.8-257.8,63.5-257.5,63.5z"/>
	</g>
</g>
<g>
	<g>
		<g>
			<circle class="st3" cx="60.3" cy="60" r="59.8"/>
		</g>
	</g>
	<g>
		<path d="M63.1,83.3c0.2-0.1,0.3-0.1,0.5,0c9.2,3.9,20.2,4.4,29.3-1.4c5.2-3.3,8.5-8,10.1-13.2c0.1-0.2,0.3-0.4,0.5-0.4H119
			c0.5,0,0.7-0.6,0.3-0.9c-1.5-1-3.5-2.5-5-2.5h-10.5H96H69.2c-0.3,0.2-0.5,0.3-0.7,0.5c-1.8,5.1-5.2,9.7-10,12.9
			c-0.2,0.2-0.6,0.1-0.7-0.1c-2.8-3-4.7-7-5.7-10c-0.4-1.1-5.6-3.4-7-3.4H24.6c-0.3,0-0.5-0.2-0.5-0.4c-0.1-0.7-0.2-1.4-0.3-2
			c-0.2-2.7,0.1-5.5,0.9-8.1c0.1-0.2,0.3-0.4,0.5-0.4h26.3c0.3-0.2,0.5-0.3,0.8-0.5c1.8-5,5.2-9.6,10-12.9c0.2-0.2,0.6-0.1,0.7,0.1
			c2.8,3,4.7,7,5.7,10c0.4,1.1,5.6,3.3,7,3.3h21h6.4H119c0.5,0,0.7-0.6,0.3-0.9c-1.5-1-3.5-2.5-5-2.5h-12.1c-0.2,0-0.4-0.1-0.5-0.3
			c-3.3-6.6-9.9-11.3-17.8-14.8c-8.6-3.8-18-4-26.2,0.1c-0.2,0.1-0.3,0.1-0.5,0c-9.2-3.9-20.1-4.4-29.3,1.4
			c-5.2,3.3-8.5,8-10.1,13.2c-0.1,0.2-0.3,0.4-0.5,0.4H1.8c-0.5,0-0.7,0.6-0.3,0.9C3,52.5,5,54,6.5,54h9.9c0.3,0,0.6,0.3,0.5,0.6
			c-0.4,3.3-0.2,6.6,0.6,9.8v0c0.1,0.3-0.2,0.6-0.5,0.6H1.8c-0.5,0-0.7,0.6-0.3,0.9c1.5,1,3.5,2.5,5,2.5h12.1c0.2,0,0.4,0.1,0.5,0.3
			c3.3,6.6,9.9,11.3,17.8,14.8C45.4,87.2,54.8,87.4,63.1,83.3z M76,35.9C86.9,35,93.1,42.2,95.7,50c0.1,0.3-0.2,0.6-0.5,0.6H74.7
			c-0.2,0-0.4-0.1-0.5-0.3c-2.1-3.9-5.4-7.5-9.5-10.5c-0.3-0.2-0.3-0.6,0.1-0.8C68,37.3,71.8,36.2,76,35.9z M38.5,38.5
			c5.2-2.6,11.4-3.1,17.3-2.1c0.1,0,0.2,0,0.4,0.1c0,0,0,0-0.1,0c-4.9,2.8-8.1,7.2-10.2,11.6c-0.5,1.1,0,2.4-1.6,2.4H27
			c-0.4,0-0.7-0.4-0.5-0.7C29,45.2,33.1,41.2,38.5,38.5z M74.9,70.7c0.5-1.1,0-2.4,1.6-2.4h17.3c0.4,0,0.7,0.4,0.5,0.7
			c-2.5,4.6-6.6,8.7-11.9,11.4C77.2,83,70.9,83.5,65,82.5c-0.1,0-0.2,0-0.4-0.1c0,0,0,0,0.1,0C69.6,79.5,72.8,75.2,74.9,70.7z
			 M25.7,68.3h20.4c0.2,0,0.4,0.1,0.5,0.3c2.1,3.9,5.5,7.5,9.5,10.4c0.3,0.2,0.3,0.6-0.1,0.8c-3.2,1.7-7,2.9-11.2,3.2
			c-10.9,0.8-17.1-6.4-19.7-14.1C25,68.6,25.3,68.3,25.7,68.3z"/>
	</g>
</g>
</svg>
