<?xml version="1.0" encoding="utf-8"?>
<!-- Generator: Adobe Illustrator 24.1.2, SVG Export Plug-In . SVG Version: 6.00 Build 0)  -->
<svg version="1.1" id="Layer_1" xmlns="http://www.w3.org/2000/svg" xmlns:xlink="http://www.w3.org/1999/xlink" x="0px" y="0px"
	 viewBox="0 0 120 120" style="enable-background:new 0 0 120 120;" xml:space="preserve">
<style type="text/css">
	.st0{fill:#161313;}
	.st1{fill:#F1F3F6;}
</style>
<g>
	<g>
		<g>
			<circle class="st0" cx="60.2" cy="60.2" r="59.8"/>
		</g>
	</g>
	<g>
		<path class="st1" d="M62.3,80.3c0.1-0.1,0.3-0.1,0.4,0c8.2,3.5,17.9,3.9,26.1-1.3c4.7-2.9,7.6-7.2,9-11.7c0.1-0.2,0.2-0.3,0.5-0.3
			H112c0.5,0,0.7-0.5,0.3-0.8c-1.3-0.9-3.1-2.2-4.5-2.2h-9.3h-6.9l-23.8,0c-0.2,0.1-0.4,0.3-0.7,0.4c-1.6,4.5-4.6,8.6-8.9,11.5
			C58,76,57.7,76,57.6,75.8c-2.5-2.7-4.2-6.3-5-8.9c-0.3-1-5-3-6.2-3H28.1c-0.2,0-0.4-0.2-0.5-0.4c-0.1-0.6-0.2-1.2-0.2-1.8
			c-0.2-2.4,0.1-4.9,0.8-7.2c0.1-0.2,0.3-0.3,0.5-0.3H52c0.2-0.2,0.4-0.3,0.7-0.4c1.6-4.5,4.6-8.6,8.8-11.5c0.2-0.1,0.5-0.1,0.7,0.1
			c2.5,2.7,4.2,6.3,5,8.9c0.3,1,5,3,6.2,3h18.7h5.7H112c0.5,0,0.7-0.5,0.3-0.8c-1.3-0.9-3.1-2.2-4.4-2.2H97c-0.2,0-0.4-0.1-0.4-0.3
			c-2.9-5.8-8.8-10-15.8-13.1c-7.6-3.4-16-3.6-23.3,0.1c-0.1,0.1-0.3,0.1-0.4,0c-8.2-3.5-17.9-3.9-26.1,1.3c-4.6,3-7.6,7.1-9,11.7
			c-0.1,0.2-0.2,0.3-0.5,0.3H7.8c-0.5,0-0.7,0.5-0.3,0.8c1.3,0.9,3.1,2.2,4.4,2.2l8.8,0c0.3,0,0.5,0.2,0.5,0.5
			c-0.4,2.9-0.2,5.9,0.5,8.7l0,0c0.1,0.3-0.2,0.6-0.5,0.6H7.8c-0.5,0-0.7,0.5-0.3,0.8C8.9,65.7,10.7,67,12,67h10.8
			c0.2,0,0.4,0.1,0.4,0.3c2.9,5.8,8.8,10,15.8,13.1C46.6,83.8,54.9,84,62.3,80.3z M73.7,38.2c9.7-0.7,15.2,5.7,17.5,12.5
			c0.1,0.3-0.1,0.6-0.5,0.6H72.6c-0.2,0-0.4-0.1-0.4-0.2c-1.9-3.5-4.8-6.7-8.4-9.3c-0.3-0.2-0.3-0.6,0-0.7
			C66.6,39.5,70,38.5,73.7,38.2z M40.4,40.5c4.6-2.3,10.2-2.8,15.4-1.8c0.1,0,0.2,0,0.3,0.1c0,0,0,0,0,0c-4.3,2.5-7.2,6.4-9,10.4
			c-0.4,0.9,0,2.2-1.4,2.2H30.2c-0.4,0-0.6-0.3-0.4-0.6C32,46.5,35.6,42.9,40.4,40.5z M72.8,69.2c0.4-0.9,0-2.2,1.4-2.2h15.4
			c0.4,0,0.6,0.3,0.4,0.6c-2.2,4.1-5.8,7.7-10.6,10.2c-4.6,2.3-10.2,2.8-15.4,1.8c-0.1,0-0.2,0-0.3-0.1c0,0,0,0,0.1,0
			C68.1,77,70.9,73.1,72.8,69.2z M29,67h18.2c0.2,0,0.4,0.1,0.4,0.2c1.9,3.5,4.9,6.7,8.4,9.3c0.3,0.2,0.3,0.6,0,0.7
			c-2.9,1.5-6.2,2.5-10,2.8c-9.7,0.7-15.2-5.7-17.5-12.5C28.4,67.3,28.7,67,29,67z"/>
	</g>
</g>
</svg>
