<?xml version="1.0" encoding="utf-8"?>
<!-- Generator: Adobe Illustrator 24.1.2, SVG Export Plug-In . SVG Version: 6.00 Build 0)  -->
<svg version="1.1" id="Layer_1" xmlns="http://www.w3.org/2000/svg" xmlns:xlink="http://www.w3.org/1999/xlink" x="0px" y="0px"
	 viewBox="0 0 119.5 119.5" style="enable-background:new 0 0 119.5 119.5;" xml:space="preserve">
<style type="text/css">
	.st0{fill:#161313;}
	.st1{fill:#F1F3F6;}
	.st2{fill:#232F4F;}
</style>
<g>
	<g>
		<g>
			<circle class="st0" cx="211.8" cy="61.8" r="59.8"/>
		</g>
	</g>
	<g>
		<path class="st1" d="M213.8,81.8c0.1-0.1,0.3-0.1,0.4,0c8.2,3.5,17.9,3.9,26.1-1.3c4.7-2.9,7.6-7.2,9-11.7
			c0.1-0.2,0.2-0.3,0.5-0.3h13.8c0.5,0,0.7-0.5,0.3-0.8c-1.3-0.9-3.1-2.2-4.5-2.2H250h-6.9h-23.8c-0.2,0.1-0.4,0.3-0.7,0.4
			c-1.6,4.5-4.6,8.6-8.9,11.5c-0.2,0.1-0.5,0.1-0.7-0.1c-2.5-2.7-4.2-6.3-5-8.9c-0.3-1-5-3-6.2-3h-18.3c-0.2,0-0.4-0.2-0.5-0.4
			c-0.1-0.6-0.2-1.2-0.2-1.8c-0.2-2.4,0.1-4.9,0.8-7.2c0.1-0.2,0.3-0.3,0.5-0.3h23.4c0.2-0.2,0.4-0.3,0.7-0.4
			c1.6-4.5,4.6-8.6,8.8-11.5c0.2-0.1,0.5-0.1,0.7,0.1c2.5,2.7,4.2,6.3,5,8.9c0.3,1,5,3,6.2,3h18.7h5.7h14.1c0.5,0,0.7-0.5,0.3-0.8
			c-1.3-0.9-3.1-2.2-4.4-2.2h-10.8c-0.2,0-0.4-0.1-0.4-0.3c-2.9-5.8-8.8-10-15.8-13.1c-7.6-3.4-16-3.6-23.3,0.1
			c-0.1,0.1-0.3,0.1-0.4,0c-8.2-3.5-17.9-3.9-26.1,1.3c-4.6,3-7.6,7.1-9,11.7c-0.1,0.2-0.2,0.3-0.5,0.3h-13.8
			c-0.5,0-0.7,0.5-0.3,0.8c1.3,0.9,3.1,2.2,4.4,2.2h8.8c0.3,0,0.5,0.2,0.5,0.5c-0.4,2.9-0.2,5.9,0.5,8.7v0c0.1,0.3-0.2,0.6-0.5,0.6
			h-13.5c-0.5,0-0.7,0.5-0.3,0.8c1.3,0.9,3.1,2.2,4.4,2.2h10.8c0.2,0,0.4,0.1,0.4,0.3c2.9,5.8,8.8,10,15.8,13.1
			C198.1,85.3,206.5,85.5,213.8,81.8z M225.3,39.7c9.7-0.7,15.2,5.7,17.5,12.5c0.1,0.3-0.1,0.6-0.5,0.6h-18.2
			c-0.2,0-0.4-0.1-0.4-0.2c-1.9-3.5-4.8-6.7-8.4-9.3c-0.3-0.2-0.3-0.6,0-0.7C218.2,41,221.5,40,225.3,39.7z M191.9,42
			c4.6-2.3,10.2-2.8,15.4-1.8c0.1,0,0.2,0,0.3,0.1c0,0,0,0,0,0c-4.3,2.5-7.2,6.4-9,10.4c-0.4,0.9,0,2.2-1.4,2.2h-15.4
			c-0.4,0-0.6-0.3-0.4-0.6C183.5,48,187.1,44.4,191.9,42z M224.3,70.7c0.4-0.9,0-2.2,1.4-2.2h15.4c0.4,0,0.6,0.3,0.4,0.6
			c-2.2,4.1-5.8,7.7-10.6,10.2c-4.6,2.3-10.2,2.8-15.4,1.8c-0.1,0-0.2,0-0.3-0.1c0,0,0,0,0.1,0C219.6,78.5,222.5,74.7,224.3,70.7z
			 M180.5,68.5h18.2c0.2,0,0.4,0.1,0.4,0.2c1.9,3.5,4.9,6.7,8.4,9.3c0.3,0.2,0.3,0.6,0,0.7c-2.9,1.5-6.2,2.5-10,2.8
			c-9.7,0.7-15.2-5.7-17.5-12.5C180,68.8,180.2,68.5,180.5,68.5z"/>
	</g>
</g>
<g>
	<g>
		<g>
			<circle class="st2" cx="59.8" cy="59.8" r="59.8"/>
		</g>
	</g>
	<g>
		<path class="st1" d="M62.8,79.8c0.1-0.1,0.3-0.1,0.4,0c8.2,3.5,17.9,3.9,26.1-1.3c4.7-2.9,7.6-7.2,9-11.7c0.1-0.2,0.2-0.3,0.5-0.3
			h13.8c0.5,0,0.7-0.5,0.3-0.8c-1.3-0.9-3.1-2.2-4.5-2.2H99h-6.9H68.3c-0.2,0.1-0.4,0.3-0.7,0.4c-1.6,4.5-4.6,8.6-8.9,11.5
			c-0.2,0.1-0.5,0.1-0.7-0.1c-2.5-2.7-4.2-6.3-5-8.9c-0.3-1-5-3-6.2-3H28.6c-0.2,0-0.4-0.2-0.5-0.4c-0.1-0.6-0.2-1.2-0.2-1.8
			c-0.2-2.4,0.1-4.9,0.8-7.2c0.1-0.2,0.3-0.3,0.5-0.3h23.4c0.2-0.2,0.4-0.3,0.7-0.4c1.6-4.5,4.6-8.6,8.8-11.5
			c0.2-0.1,0.5-0.1,0.7,0.1c2.5,2.7,4.2,6.3,5,8.9c0.3,1,5,3,6.2,3h18.7h5.7h14.1c0.5,0,0.7-0.5,0.3-0.8c-1.3-0.9-3.1-2.2-4.4-2.2
			H97.6c-0.2,0-0.4-0.1-0.4-0.3c-2.9-5.8-8.8-10-15.8-13.1c-7.6-3.4-16-3.6-23.3,0.1c-0.1,0.1-0.3,0.1-0.4,0
			c-8.2-3.5-17.9-3.9-26.1,1.3c-4.6,3-7.6,7.1-9,11.7c-0.1,0.2-0.2,0.3-0.5,0.3H8.3c-0.5,0-0.7,0.5-0.3,0.8c1.3,0.9,3.1,2.2,4.4,2.2
			h8.8c0.3,0,0.5,0.2,0.5,0.5c-0.4,2.9-0.2,5.9,0.5,8.7l0,0c0.1,0.3-0.2,0.6-0.5,0.6H8.3c-0.5,0-0.7,0.5-0.3,0.8
			c1.3,0.9,3.1,2.2,4.4,2.2h10.8c0.2,0,0.4,0.1,0.4,0.3c2.9,5.8,8.8,10,15.8,13.1C47.1,83.3,55.5,83.5,62.8,79.8z M74.3,37.7
			c9.7-0.7,15.2,5.7,17.5,12.5c0.1,0.3-0.1,0.6-0.5,0.6H73.1c-0.2,0-0.4-0.1-0.4-0.2c-1.9-3.5-4.8-6.7-8.4-9.3
			c-0.3-0.2-0.3-0.6,0-0.7C67.2,39,70.5,38,74.3,37.7z M40.9,40c4.6-2.3,10.2-2.8,15.4-1.8c0.1,0,0.2,0,0.3,0.1c0,0,0,0,0,0
			c-4.3,2.5-7.2,6.4-9,10.4c-0.4,0.9,0,2.2-1.4,2.2H30.7c-0.4,0-0.6-0.3-0.4-0.6C32.5,46,36.1,42.4,40.9,40z M73.3,68.7
			c0.4-0.9,0-2.2,1.4-2.2h15.4c0.4,0,0.6,0.3,0.4,0.6c-2.2,4.1-5.8,7.7-10.6,10.2c-4.6,2.3-10.2,2.8-15.4,1.8c-0.1,0-0.2,0-0.3-0.1
			c0,0,0,0,0.1,0C68.6,76.5,71.5,72.7,73.3,68.7z M29.5,66.5h18.2c0.2,0,0.4,0.1,0.4,0.2c1.9,3.5,4.9,6.7,8.4,9.3
			c0.3,0.2,0.3,0.6,0,0.7c-2.9,1.5-6.2,2.5-10,2.8c-9.7,0.7-15.2-5.7-17.5-12.5C29,66.8,29.2,66.5,29.5,66.5z"/>
	</g>
</g>
</svg>
